<svg width="35" height="34" viewBox="0 0 35 34" fill="none" xmlns="http://www.w3.org/2000/svg">
<path d="M17.625 15.4688C18.7375 15.4688 19.8251 15.1389 20.7501 14.5208C21.6751 13.9027 22.3961 13.0242 22.8218 11.9963C23.2476 10.9685 23.359 9.83751 23.1419 8.74637C22.9249 7.65523 22.3891 6.65295 21.6025 5.86628C20.8158 5.07961 19.8135 4.54388 18.7224 4.32684C17.6312 4.10979 16.5002 4.22119 15.4724 4.64693C14.4446 5.07267 13.5661 5.79364 12.948 6.71867C12.3299 7.6437 12 8.73123 12 9.84375C12 11.3356 12.5926 12.7663 13.6475 13.8212C14.7024 14.8761 16.1332 15.4688 17.625 15.4688Z" fill="white"/>
<path d="M26.0625 29.5312C26.4355 29.5312 26.7931 29.3831 27.0569 29.1194C27.3206 28.8556 27.4688 28.498 27.4688 28.125C27.4688 25.5143 26.4316 23.0105 24.5856 21.1644C22.7395 19.3184 20.2357 18.2812 17.625 18.2812C15.0143 18.2812 12.5105 19.3184 10.6644 21.1644C8.81836 23.0105 7.78125 25.5143 7.78125 28.125C7.78125 28.498 7.92941 28.8556 8.19313 29.1194C8.45685 29.3831 8.81454 29.5312 9.1875 29.5312H26.0625Z" fill="white"/>
</svg>
