<svg width="27" height="27" viewBox="0 0 27 27" fill="none" xmlns="http://www.w3.org/2000/svg">
<mask id="mask0_1428_7028" style="mask-type:alpha" maskUnits="userSpaceOnUse" x="0" y="0" width="27" height="27">
<path d="M22.6125 10.3736C20.5763 10.3736 19.7438 8.93359 20.7563 7.16734C21.3413 6.14359 20.9925 4.83859 19.9688 4.25359L18.0225 3.13984C17.1338 2.61109 15.9862 2.92609 15.4575 3.81484L15.3337 4.02859C14.3212 5.79484 12.6562 5.79484 11.6325 4.02859L11.5087 3.81484C11.3875 3.60219 11.2251 3.41579 11.0311 3.26647C10.8371 3.11716 10.6154 3.00792 10.3788 2.9451C10.1422 2.88229 9.89547 2.86716 9.65297 2.90059C9.41046 2.93402 9.17703 3.01535 8.96625 3.13984L7.02 4.25359C5.99625 4.83859 5.6475 6.15484 6.2325 7.17859C7.25625 8.93359 6.42375 10.3736 4.3875 10.3736C3.2175 10.3736 2.25 11.3298 2.25 12.5111V14.4911C2.25 15.6611 3.20625 16.6286 4.3875 16.6286C6.42375 16.6286 7.25625 18.0686 6.2325 19.8348C5.6475 20.8586 5.99625 22.1636 7.02 22.7486L8.96625 23.8623C9.855 24.3911 11.0025 24.0761 11.5312 23.1873L11.655 22.9736C12.6675 21.2073 14.3325 21.2073 15.3562 22.9736L15.48 23.1873C16.0087 24.0761 17.1563 24.3911 18.045 23.8623L19.9913 22.7486C21.015 22.1636 21.3637 20.8473 20.7787 19.8348C19.755 18.0686 20.5875 16.6286 22.6238 16.6286C23.7938 16.6286 24.7612 15.6723 24.7612 14.4911V12.5111C24.7554 11.9441 24.5267 11.4021 24.1247 11.0022C23.7227 10.6023 23.1795 10.3765 22.6125 10.3736ZM13.5 17.1573C11.4862 17.1573 9.84375 15.5148 9.84375 13.5011C9.84375 11.4873 11.4862 9.84484 13.5 9.84484C15.5138 9.84484 17.1562 11.4873 17.1562 13.5011C17.1562 15.5148 15.5138 17.1573 13.5 17.1573Z" fill="black"/>
</mask>
<g mask="url(#mask0_1428_7028)">
<rect x="-13.5" y="-13.5" width="52.875" height="57.375" fill="white"/>
</g>
</svg>
